#!OML:ASF F:\VICON\USERDATA\INSTALL\rory3\rory3.ASF
:FULLY-SPECIFIED
:DEGREES
27
root 0.49400454578999126 16.90620251690664 -14.840385836829606 14.723699258311433 -2.4465399654341287 -3.2487141468959364
lfemur -37.23309687315551 11.369468452579525 -19.833790212811557
ltibia 41.12999710976088
lfoot -16.29689500793721 7.337573200233901
ltoes -10.79080242577055
rfemur -36.835997437589185 -1.4553504441241727 22.117998800593757
rtibia 40.50429729646457
rfoot -18.0989958996223 -3.964497844247723
rtoes -1.2434506964528218
lowerback 9.506810467393542 -0.1532757987475899 0.7919233801044872
upperback 4.264346984421691 -0.10048757745887127 2.2930565029711696
thorax -0.9033572150283462 -0.06337732958551318 1.9335481787075117
lowerneck -15.85309511887767 0.8429928467581093 -2.145489544839621
upperneck 19.91660079263025 1.7302421563457155 -0.10839520991359747
head 8.833381025302359 0.6321651280872447 0.528992393819406
lclavicle 3.882576218289067e-16 -1.4342433419013948e-15
lhumerus -20.85290271662629 -4.03527116184069 80.78120550855354
lradius 27.496693451901955
lwrist 15.790800320560832
lhand -24.217306170397983 -1.215941614397587
lfingers 7.12502
lthumb 2.267493796017559 28.75177848819201
rclavicle 3.882576218289067e-16 -1.4342433419013948e-15
rhumerus -20.092902250767015 -12.3437973714023 -77.06480194650695
rradius 29.54140042033623
rwrist 27.69770073994112
rhand -19.17150828620728 -24.54020512736761
rfingers 7.12502
rthumb 7.139551705951879 -54.39980521474726
28
root 0.5023379769187964 16.666404616827037 -15.131886503073533 17.008796992297423 -2.7020680165395348 -3.3042130471707263
lfemur -43.6884936665919 11.58756675287881 -20.574685128022335
ltibia 46.12839437696691
lfoot -17.353993436268336 7.885012019817405
ltoes -10.435303032667072
rfemur -43.258894256989564 -1.578479471916232 22.392095670720856
rtibia 45.419894084894615
rfoot -19.22389477537043 -3.774038216095565
rtoes -1.370050321456663
lowerback 12.618897708841306 -0.06040681066047582 0.44328842207253455
upperback 4.783143294498294 0.03445079539917728 2.2788268414579766
thorax -2.062656170559845 -0.00014303967820816776 2.1168550444925383
lowerneck -16.76029187174697 0.9967083525921345 -2.120149702690569
upperneck 16.399203574788054 1.9756689251261967 -0.4192054564358846
head 7.811463271304227 0.7597006252663645 0.43514825099398124
lclavicle 3.8825761835361254e-16 -1.4342433132963314e-15
lhumerus -23.000400785810566 -3.967131221743076 79.83630694325413
lradius 26.591894831994527
lwrist 16.957899194860243
lhand -25.413600655664226 -3.960991167307552
lfingers 7.12502
lthumb 1.1120993513330841 26.01588881037811
rclavicle 3.8825761835361254e-16 -1.4342433132963314e-15
rhumerus -22.254100439429415 -12.610696939676952 -75.74490333491366
rradius 28.952501120189385
rwrist 27.7944005263509
rhand -18.156611699116993 -24.034607406022367
rfingers 7.12502
rthumb 8.11914849897622 -53.85860752236155
29
root 0.5053077741268894 16.36800722647881 -15.417185941691562 20.002193870907 -2.7591776398486507 -3.335232425550997
lfemur -51.20238896887875 11.460067880902317 -21.41577946011815
ltibia 51.47259127727495
lfoot -18.43229209871016 8.969129754074997
ltoes -11.307101440224368
rfemur -50.718290330356425 -1.7188383586238474 22.757291495890776
rtibia 50.77939163349825
rfoot -20.62279292364251 -3.903507930715432
rtoes -1.876069411797908
lowerback 15.577695090487758 0.030261376652071625 0.086400016440633
upperback 5.034171547650902 0.14405326547737085 2.253997417215862
thorax -3.3944238575315113 0.05523193178747671 2.2943220204798154
lowerneck -17.705788192137497 1.1009189488468816 -2.067200221827651
upperneck 12.957106157012129 2.137026699468249 -0.7677222610868442
head 6.846315529049776 0.8501594320310051 0.3176215624236623
lclavicle 3.8825762105251114e-16 -1.4342433662783254e-15
lhumerus -26.204398217943655 -4.452250563115748 79.17180789557383
lradius 25.532396943081473
lwrist 17.879698270004905
lhand -24.518504793680655 -2.926015084499215
lfingers 7.12502
lthumb 1.97657519633092 27.04458477155627
rclavicle 3.8825762105251114e-16 -1.4342433662783254e-15
rhumerus -25.69479769970263 -13.281795907039811 -73.93960550498483
rradius 28.278001990738808
rwrist 28.112199916662917
rhand -16.872915899632236 -23.626909149667885
rfingers 7.12502
rthumb 9.35799417920134 -53.39910953825791
30
root 0.5049098009556696 16.008710398472125 -15.695785171471057 23.315790250716823 -2.722127996419511 -3.322952689711123
lfemur -59.26528557683404 10.920472212792001 -22.200173876236626
ltibia 57.08678906713503
lfoot -19.44879105418677 10.526196480434326
ltoes -12.654698909652147
rfemur -58.73428478597347 -1.6286190717518525 23.058788034016214
rtibia 56.421787328577224
rfoot -22.050891200808984 -4.442886939221352
rtoes -2.893388322396321
lowerback 18.801192168251674 0.1618191955737851 -0.2883922464869079
upperback 5.135560839447006 0.2827914965684577 2.2140783361048175
thorax -5.004320989787219 0.13128924123762511 2.460419176052906
lowerneck -18.80148440340902 1.0949190849552441 -2.185939209986794
upperneck 9.401898363005577 2.1452466500437666 -0.8903277635223195
head 5.87910765398564 0.8848711770706736 0.2861781787176068
lclavicle 3.882576116803071e-16 -1.4342433386128654e-15
lhumerus -30.55949458405073 -4.990719788463194 78.94750816864888
lradius 24.156999352317644
lwrist 18.25369805746695
lhand -23.663908745875805 -2.348367351316682
lfingers 7.12502
lthumb 2.801911197093089 27.61298256659835
rclavicle 3.882576116803071e-16 -1.4342433386128654e-15
rhumerus -30.403194223126704 -13.99829501608661 -71.66070802788059
rradius 27.625502731753485
rwrist 28.483199192099118
rhand -15.32992104384374 -23.547309576314266
rfingers 7.12502
rthumb 10.846479179632254 -53.247210160002425
31
root 0.4958214217566284 15.726112837266133 -15.965085331929552 26.89818670922009 -2.6266286272852652 -3.3554320428318425
lfemur -66.64118081765042 10.08137887613145 -22.73557037235713
ltibia 60.87388653291351
lfoot -19.790190430074748 12.12549313433565
ltoes -14.269395978758048
rfemur -66.04958271428356 -1.131993005534789 23.218986237957907
rtibia 60.20068662140184
rfoot -22.54289054658363 -5.257865393012034
rtoes -3.622816883815954
lowerback 22.173788693824655 0.34656327206137205 -0.7855039603688992
upperback 5.035331534255939 0.4412314507828119 2.229268009236314
thorax -6.889777693844569 0.22772859598668999 2.7498142482006216
lowerneck -19.981879836654958 1.0503701204225249 -2.3267379622638495
upperneck 6.098680521249451 2.1000271963436883 -0.9161624405140791
head 5.010309448792221 0.9001626506207289 0.28587218571012835
lclavicle 3.882576230119876e-16 -1.4342433121218154e-15
lhumerus -36.80898996194348 -4.784840076816394 79.00410793398694
lradius 23.160101191364888
lwrist 19.43149699133104
lhand -23.874007726536206 -2.5712064549159743
lfingers 7.12502
lthumb 2.5990821794452916 27.392683470953415
rclavicle 3.882576230119876e-16 -1.4342433121218154e-15
rhumerus -36.41728900965328 -15.107693249138782 -68.46991218162047
rradius 26.606703873723717
rwrist 29.415297337268804
rhand -14.418724044049691 -22.812412765736987
rfingers 7.12502
rthumb 11.725275794615559 -52.4643136986211
32
root 0.47781065203984135 15.308016422335278 -16.19208436008701 30.870982272565122 -2.395300296652448 -3.3841314695574156
lfemur -75.13077935401772 8.764929161558378 -22.83986942189134
ltibia 66.22658354538123
lfoot -20.994488568747894 14.555088045647967
ltoes -14.6627951943553
rfemur -74.49517660962456 -0.40287077980108643 23.15798698085413
rtibia 65.58818306574945
rfoot -24.070388697995305 -7.029021818037391
rtoes -2.598368335083217
lowerback 25.664786138449728 0.5726827057553308 -1.2629018367026772
upperback 4.665664130356451 0.6202751584208914 2.231987956141544
thorax -9.12068355144977 0.34947926187129286 3.0083297501229493
lowerneck -20.902476869584316 0.9107323135004443 -2.4065672222587997
upperneck 2.582853132292094 1.8965499155786048 -0.8659660421918243
head 4.038471606651796 0.849573435620701 0.28334323458240646
lclavicle 3.882576196106341e-16 -1.4342433202910141e-15
lhumerus -44.39288320633391 -4.1664909594798045 79.1460076864539
lradius 22.31440267511417
lwrist 22.06259426738174
lhand -24.38220542866064 -3.085394491512053
lfingers 7.12502
lthumb 2.10824462859033 26.883885453755994
rclavicle 3.882576196106341e-16 -1.4342433202910141e-15
rhumerus -43.565283385112465 -16.12889192077006 -64.5232162465998
rradius 25.645405016360662
rwrist 30.24529575552896
rhand -13.588326657361096 -22.08321592140734
rfingers 7.12502
rthumb 12.525973435554722 -51.68771700549544
33
root 0.4500855459195099 14.882420012227 -16.37288465824919 34.23887997399332 -2.1081624997466246 -3.4176108090701502
lfemur -82.60877190123607 7.463989526937711 -22.516471903732864
ltibia 71.29507899602419
lfoot -22.12518732657064 17.084382659679456
ltoes -14.105896171659051
rfemur -81.97997201374798 0.48819517952857794 22.85499039414542
rtibia 70.71268062637083
rfoot -25.740586717033747 -9.576246953880185
rtoes -2.6105486095246437
lowerback 30.082682125769495 0.9178612394151571 -1.6920981294598065
upperback 4.289226758557062 0.9139333922966635 2.2371078288765753
thorax -11.833179302048336 0.5374201164226785 3.2008865095512835
lowerneck -21.033076043193567 0.6882753680509507 -2.4184771850450946
upperneck -1.6174429339417031 1.5439446311720226 -0.9002276307953347
head 3.1477436304064392 0.7272867679329325 0.27479840088592106
lclavicle 3.882576179839017e-16 -1.4342433495225137e-15
lhumerus -52.755077703618625 -3.1850224004478016 79.31430745787715
lradius 21.290404646003235
lwrist 23.979692834537428
lhand -24.7529037207531 -4.312629664031057
lfingers 7.12502
lthumb 1.750246302908805 25.65989025547019
rclavicle 3.882576179839017e-16 -1.4342433495225137e-15
rhumerus -51.64337649724234 -16.364291493786524 -60.40812087475831
rradius 25.112505515985088
rwrist 29.222197739881494
rhand -13.736826593850786 -21.558318269643966
rfingers 7.12502
rthumb 12.382873734122194 -51.17151932486179
